<svg width="16" height="15" viewBox="0 0 16 15" fill="none" xmlns="http://www.w3.org/2000/svg">
<path d="M7.62017 9.25735L2.37594 14.1967C2.37593 14.1967 2.37593 14.1967 2.37592 14.1967C1.94652 14.6011 1.23865 14.6011 0.809256 14.1967C0.396913 13.8083 0.396913 13.1917 0.809261 12.8034L0.809269 12.8034L6.05355 7.864L6.43999 7.50002L6.05355 7.13604L0.809275 2.1967C0.809273 2.1967 0.809271 2.1967 0.809269 2.1967C0.396908 1.80829 0.396901 1.19172 0.809265 0.803316C1.23866 0.398896 1.94653 0.398895 2.37592 0.803311C2.37592 0.803313 2.37593 0.803314 2.37593 0.803316L7.62017 5.74269L7.96298 6.06557L8.3058 5.74269L13.5501 0.803311L13.5501 0.803303C13.9794 0.398899 14.6873 0.398899 15.1167 0.803303C15.529 1.1917 15.529 1.80831 15.1167 2.19671L9.87242 7.13604L9.48597 7.50002L9.87242 7.86399L15.1167 12.8034C15.529 13.1917 15.529 13.8084 15.1167 14.1967C14.6873 14.6011 13.9794 14.6011 13.5501 14.1967L8.3058 9.25735L7.96298 8.93446L7.62017 9.25735Z" fill="#373867" stroke="#373867"/>
</svg>
