<svg width="68" height="24" viewBox="0 0 68 24" fill="none" xmlns="http://www.w3.org/2000/svg">
<path d="M60.3581 8L58.8611 9.41L60.5386 11H51.8643V13H60.5386L58.8611 14.58L60.3581 16L64.605 12L60.3581 8ZM47.6174 5H55.0495V3H47.6174C46.4495 3 45.4939 3.9 45.4939 5V19C45.4939 20.1 46.4495 21 47.6174 21H55.0495V19H47.6174V5Z" fill="white" fill-opacity="0.82"/>
<path d="M7.5957 14.2534C7.5957 14.0337 7.56152 13.8384 7.49316 13.6675C7.42969 13.4966 7.31494 13.3403 7.14893 13.1987C6.98291 13.0571 6.74854 12.9204 6.4458 12.7886C6.14795 12.6519 5.76709 12.5127 5.30322 12.3711C4.79541 12.2148 4.32666 12.0415 3.89697 11.8511C3.47217 11.6558 3.10107 11.4312 2.78369 11.1772C2.46631 10.9185 2.21973 10.623 2.04395 10.291C1.86816 9.9541 1.78027 9.56592 1.78027 9.12646C1.78027 8.69189 1.87061 8.29639 2.05127 7.93994C2.23682 7.5835 2.49805 7.27588 2.83496 7.01709C3.17676 6.75342 3.57959 6.55078 4.04346 6.40918C4.50732 6.2627 5.02002 6.18945 5.58154 6.18945C6.37256 6.18945 7.05371 6.33594 7.625 6.62891C8.20117 6.92188 8.64307 7.31494 8.95068 7.80811C9.26318 8.30127 9.41943 8.8457 9.41943 9.44141H7.5957C7.5957 9.08984 7.52002 8.77979 7.36865 8.51123C7.22217 8.23779 6.99756 8.02295 6.69482 7.8667C6.39697 7.71045 6.01855 7.63232 5.55957 7.63232C5.125 7.63232 4.76367 7.69824 4.47559 7.83008C4.1875 7.96191 3.97266 8.14014 3.83105 8.36475C3.68945 8.58936 3.61865 8.84326 3.61865 9.12646C3.61865 9.32666 3.66504 9.50977 3.75781 9.67578C3.85059 9.83691 3.99219 9.98828 4.18262 10.1299C4.37305 10.2666 4.6123 10.396 4.90039 10.5181C5.18848 10.6401 5.52783 10.7573 5.91846 10.8696C6.50928 11.0454 7.02441 11.2407 7.46387 11.4556C7.90332 11.6655 8.26953 11.9048 8.5625 12.1733C8.85547 12.4419 9.0752 12.7471 9.22168 13.0889C9.36816 13.4258 9.44141 13.8091 9.44141 14.2388C9.44141 14.688 9.35107 15.0933 9.17041 15.4546C8.98975 15.811 8.73096 16.1162 8.39404 16.3701C8.06201 16.6191 7.66162 16.812 7.19287 16.9487C6.729 17.0806 6.21143 17.1465 5.64014 17.1465C5.12744 17.1465 4.62207 17.0781 4.12402 16.9414C3.63086 16.8047 3.18164 16.5972 2.77637 16.3188C2.37109 16.0356 2.04883 15.6841 1.80957 15.2642C1.57031 14.8394 1.45068 14.3438 1.45068 13.7773H3.28906C3.28906 14.124 3.34766 14.4194 3.46484 14.6636C3.58691 14.9077 3.75537 15.1079 3.97021 15.2642C4.18506 15.4155 4.43408 15.5278 4.71729 15.6011C5.00537 15.6743 5.31299 15.7109 5.64014 15.7109C6.06982 15.7109 6.42871 15.6499 6.7168 15.5278C7.00977 15.4058 7.22949 15.2349 7.37598 15.0151C7.52246 14.7954 7.5957 14.5415 7.5957 14.2534ZM15.5094 15.4106V11.6313C15.5094 11.3481 15.4581 11.104 15.3556 10.8989C15.253 10.6938 15.0968 10.5352 14.8868 10.4229C14.6817 10.3105 14.4229 10.2544 14.1104 10.2544C13.8224 10.2544 13.5733 10.3032 13.3634 10.4009C13.1534 10.4985 12.9898 10.6304 12.8727 10.7964C12.7555 10.9624 12.6969 11.1504 12.6969 11.3604H10.9391C10.9391 11.0479 11.0147 10.7451 11.1661 10.4521C11.3175 10.1592 11.5372 9.89795 11.8253 9.66846C12.1134 9.43896 12.4576 9.2583 12.858 9.12646C13.2584 8.99463 13.7076 8.92871 14.2057 8.92871C14.8014 8.92871 15.3287 9.02881 15.7877 9.229C16.2516 9.4292 16.6153 9.73193 16.879 10.1372C17.1476 10.5376 17.2818 11.0405 17.2818 11.646V15.1689C17.2818 15.5303 17.3062 15.855 17.3551 16.1431C17.4088 16.4263 17.4845 16.6729 17.5821 16.8828V17H15.773C15.69 16.8096 15.6241 16.5679 15.5753 16.2749C15.5313 15.9771 15.5094 15.689 15.5094 15.4106ZM15.7657 12.1807L15.7804 13.272H14.5133C14.1861 13.272 13.898 13.3037 13.649 13.3672C13.4 13.4258 13.1925 13.5137 13.0265 13.6309C12.8604 13.748 12.7359 13.8896 12.6529 14.0557C12.5699 14.2217 12.5284 14.4097 12.5284 14.6196C12.5284 14.8296 12.5772 15.0225 12.6749 15.1982C12.7726 15.3691 12.9142 15.5034 13.0997 15.6011C13.2901 15.6987 13.5196 15.7476 13.7882 15.7476C14.1495 15.7476 14.4645 15.6743 14.733 15.5278C15.0064 15.3765 15.2213 15.1934 15.3775 14.9785C15.5338 14.7588 15.6168 14.5513 15.6266 14.356L16.1979 15.1396C16.1393 15.3398 16.0392 15.5547 15.8976 15.7842C15.756 16.0137 15.5704 16.2334 15.3409 16.4434C15.1163 16.6484 14.8453 16.8169 14.5279 16.9487C14.2154 17.0806 13.8541 17.1465 13.4439 17.1465C12.9264 17.1465 12.4649 17.0439 12.0597 16.8389C11.6544 16.6289 11.337 16.3481 11.1075 15.9966C10.878 15.6401 10.7633 15.2373 10.7633 14.7881C10.7633 14.3682 10.8414 13.9971 10.9977 13.6748C11.1588 13.3477 11.3932 13.0742 11.7008 12.8545C12.0133 12.6348 12.3941 12.4688 12.8434 12.3564C13.2926 12.2393 13.8053 12.1807 14.3814 12.1807H15.7657ZM21.1672 5.75V17H19.3947V5.75H21.1672ZM25.1404 9.0752V17H23.368V9.0752H25.1404ZM23.2508 6.99512C23.2508 6.72656 23.3387 6.50439 23.5145 6.32861C23.6951 6.14795 23.9441 6.05762 24.2615 6.05762C24.574 6.05762 24.8206 6.14795 25.0013 6.32861C25.1819 6.50439 25.2723 6.72656 25.2723 6.99512C25.2723 7.25879 25.1819 7.47852 25.0013 7.6543C24.8206 7.83008 24.574 7.91797 24.2615 7.91797C23.9441 7.91797 23.6951 7.83008 23.5145 7.6543C23.3387 7.47852 23.2508 7.25879 23.2508 6.99512ZM28.9965 10.584V17H27.2313V9.0752H28.9159L28.9965 10.584ZM31.4208 9.02393L31.4062 10.6646C31.2987 10.645 31.1815 10.6304 31.0546 10.6206C30.9325 10.6108 30.8104 10.606 30.6884 10.606C30.3856 10.606 30.1195 10.6499 29.89 10.7378C29.6605 10.8208 29.4677 10.9429 29.3114 11.104C29.1601 11.2603 29.0429 11.4507 28.9599 11.6753C28.8769 11.8999 28.828 12.1514 28.8134 12.4297L28.4105 12.459C28.4105 11.9609 28.4594 11.4995 28.557 11.0747C28.6547 10.6499 28.8012 10.2764 28.9965 9.9541C29.1967 9.63184 29.4457 9.38037 29.7436 9.19971C30.0463 9.01904 30.3954 8.92871 30.7909 8.92871C30.8983 8.92871 31.0131 8.93848 31.1352 8.95801C31.2621 8.97754 31.3573 8.99951 31.4208 9.02393Z" fill="white" fill-opacity="0.82"/>
</svg>
